Coordinates
version=1
nRows=13
nColumns=36
inDegrees=yes

Units are S.I. units (second, meters, Newtons, ...)
If the header above contains a line with 'inDegrees', this indicates whether rotational values are in degrees (yes) or radians (no).

endheader
time	pelvis_tilt	pelvis_list	pelvis_rotation	pelvis_tx	pelvis_ty	pelvis_tz	hip_flexion_r	hip_adduction_r	hip_rotation_r	knee_angle_r	knee_angle_r_beta	ankle_angle_r	subtalar_angle_r	mtp_angle_r	hip_flexion_l	hip_adduction_l	hip_rotation_l	knee_angle_l	knee_angle_l_beta	ankle_angle_l	subtalar_angle_l	mtp_angle_l	lumbar_extension	lumbar_bending	lumbar_rotation	arm_flex_r	arm_add_r	arm_rot_r	elbow_flex_r	pro_sup_r	arm_flex_l	arm_add_l	arm_rot_l	elbow_flex_l	pro_sup_l
      6.45000000	     -2.49540456	     -5.25813978	      0.76190429	      0.05289052	      1.05760335	      0.03332556	     14.78306068	      4.27488753	     -2.38762036	     20.86145854	      0.36410114	      3.88805111	    -20.33339414	     -7.49999987	      2.07600261	     -0.13379558	     -1.01775506	      3.89352657	      0.06795486	      9.05526993	     -2.29862302	     -7.49999987	      6.61410151	      3.66771315	      5.48163726	     48.11096430	      7.91520372	     54.53897326	    126.66408944	     93.34327539	     71.34930774	      7.50932586	     75.07673903	    121.78168783	     92.16876120
      6.46666670	     -2.19972628	     -5.19875514	      1.38954162	      0.05337776	      1.06515325	      0.03182204	     16.74374195	      4.41230799	     -2.26615462	     22.23082728	      0.38800113	      3.63502663	    -20.69994810	     -7.49999987	      2.18688156	     -0.05213514	     -0.49499505	      3.94471396	      0.06884825	      7.62101712	     -2.67787093	     -7.49999987	      5.95300035	      3.49304436	      4.73746013	     47.21696003	      7.38269430	     53.79672673	    125.03984841	     91.19780220	     70.96456071	      7.42995259	     75.75135709	    121.44385963	     90.01813992
      6.48333330	     -1.90773103	     -5.19829881	      1.94879336	      0.05246619	      1.06592150	      0.02985881	     18.38306143	      4.53072734	     -2.32920917	     22.49682917	      0.39264374	      2.83849742	    -20.72379417	     -7.49999987	      1.90352377	     -0.00241507	     -0.84769398	      3.44388303	      0.06010710	      6.24648065	     -1.77472448	     -7.49999987	      5.38708649	      3.40922050	      4.11295840	     46.67794889	      7.32883728	     53.17691317	    124.06702021	     92.84987694	     70.61930478	      7.50150193	     76.15065561	    121.15012831	     90.70428567
      6.50000000	     -1.60704298	     -5.20053538	      2.35057439	      0.05301027	      1.06816895	      0.02833881	     19.75429212	      4.58953853	     -2.55504763	     21.74023377	      0.37943866	      2.01067506	    -20.08679699	     -7.49999987	      1.71504454	      0.06954275	     -1.07054342	      2.86316096	      0.04997159	      4.29491589	     -1.38887367	     -7.49999987	      4.69522243	      3.37228060	      3.55189371	     46.09993658	      7.17195079	     52.46387444	    123.06219273	     93.27064795	     70.49001092	      7.58907015	     76.40593184	    121.09987800	     90.89052062
      6.51666670	     -1.20508421	     -5.30140670	      2.83389154	      0.05295844	      1.06711736	      0.02677893	     20.75045038	      4.68040236	     -2.90189499	     19.98741204	      0.34884615	      2.58012035	    -17.97798059	     -7.49999987	      1.26337844	     -0.05870952	     -1.04680560	      2.54295853	      0.04438300	      3.28114002	     -0.98147785	     -7.49999987	      4.10232741	      3.45988372	      3.01765382	     45.75747902	      7.22532424	     51.88534218	    122.36543444	     91.99780530	     70.30257126	      7.65199939	     76.52370930	    121.23604626	     89.71306851
      6.53333330	     -0.75360802	     -5.25978824	      3.07311106	      0.05334678	      1.06794750	      0.02474757	     21.33927460	      4.67771344	     -2.47283115	     17.54810539	      0.30627222	      3.45939866	    -16.05919042	     -7.49999987	      0.96921699	      0.04876234	     -1.36383327	      2.28006597	      0.03979466	      2.41986092	     -1.08633051	     -7.49999987	      3.49702937	      3.42774198	      2.58836825	     45.46817356	      7.26726266	     51.23939624	    121.70590923	     92.04059357	     70.33804828	      7.72978192	     76.53087412	    121.19844578	     89.65855313
      6.55000000	     -0.56250856	     -5.17574778	      3.72483969	      0.05239608	      1.07094547	      0.02155355	     22.32069957	      4.46801549	     -2.38024728	     14.25844965	      0.24885689	      6.59402061	    -10.60477983	     -7.49999987	      0.59626114	      0.23610923	     -1.38232643	      2.03573891	      0.03553035	      3.96653268	     -0.16360554	     -7.49999987	      3.21666671	      3.28223650	      1.66548970	     44.87122295	      7.37731167	     50.41137722	    121.08386251	     92.95897159	     70.35041285	      7.66662621	     76.55953015	    121.09442807	     90.19245466
      6.56666670	     -0.15749072	     -5.21724180	      4.09570318	      0.05401141	      1.07068392	      0.02034182	     22.64256685	      4.29713814	     -2.38054955	     11.10675246	      0.19384940	      7.54381245	     -7.15228408	     -7.49999987	     -0.27690284	      0.31726966	     -1.29998210	      1.78167228	      0.03109605	      4.51643318	     -0.01242472	     -7.49999987	      2.86980500	      3.39084975	      1.02732702	     44.43906787	      7.44501535	     49.51998799	    120.10510440	     92.19738570	     70.07827759	      7.53025876	     76.46869219	    121.15087262	     89.41848560
      6.58333330	      0.18727046	     -5.03607864	      4.25321687	      0.05419424	      1.07022261	      0.01873392	     22.67786086	      3.83375985	     -2.97106958	      7.75378035	      0.13532900	      7.56605726	     -3.57934081	     -7.49999987	     -1.05674435	      0.65059503	     -1.92304407	      1.70058032	      0.02968073	      5.37964092	      0.55700356	     -7.49999987	      2.27304774	      3.32574821	      0.83502158	     44.38455091	      7.42920092	     48.94736577	    119.36625537	     92.35765399	     70.28307717	      7.65305951	     76.29663031	    121.82076095	     89.43764097
      6.60000000	      0.91520257	     -4.67939052	      4.12606977	      0.05597814	      1.07368193	      0.01731662	     22.17936953	      3.32996610	     -3.85863624	      4.75091639	      0.08291913	      6.41466538	     -0.40379585	     -7.49999987	     -1.77372079	      1.08649640	     -2.36593648	      1.95729904	      0.03416131	      4.48486373	      0.37893182	     -7.49999987	      1.45981567	      3.15512299	      1.02126340	     44.17108714	      7.52672433	     48.17284908	    118.76948480	     93.51866208	     70.14042844	      7.50125973	     76.16782378	    121.78647405	     90.35958548
      6.61666670	      1.52927185	     -4.17350523	      3.70077460	      0.05662689	      1.07810060	      0.01691613	     21.96638634	      2.78913301	     -4.65880466	      2.48124132	      0.04330583	      5.37325104	      2.33498785	     -7.49999987	     -2.32187706	      1.65390649	     -2.43954732	      1.64369101	      0.02868782	      6.33249072	      1.88182391	     -7.49999987	      0.82093434	      2.64608516	      1.23576170	     43.98614505	      7.61275774	     47.82850846	    118.25273322	     92.58042508	     70.21062639	      7.36756849	     76.46020455	    121.68228359	     89.44097736
      6.63333330	      1.99336440	     -3.54848564	      3.33414107	      0.05634693	      1.08377597	      0.01506191	     22.33554804	      2.02949615	     -5.23707770	      1.29851633	      0.02266339	      4.33579002	      4.15024551	     -7.49999987	     -2.19765106	      2.34284057	     -1.96649883	      1.23865529	      0.02161861	      8.94813447	      3.27056889	     -7.49999987	      0.16697405	      2.04698499	      1.67458632	     43.56738248	      7.51917639	     47.77218053	    118.09092454	     92.64256074	     69.93303995	      7.39887726	     76.81105124	    122.03850360	     89.36598444
      6.65000000	      2.10173743	     -2.99900215	      2.91812887	      0.05408420	      1.08908987	      0.01410141	     23.11625240	      1.39692463	     -6.01320522	      0.61731295	      0.01077414	      3.70023849	      5.57068602	     -7.49999987	     -2.17936878	      3.00981459	     -1.03249788	      0.91878416	      0.01603581	     11.80108310	      5.23906050	     -7.49999987	      0.22052460	      1.42271366	      2.14964233	     42.97271509	      7.32934491	     46.86800305	    116.65448030	     93.43960097	     69.30360109	      6.85008400	     77.20907392	    121.70911376	     89.22896130
